<?xml version="1.0" encoding="utf-8"?>
<!-- Generator: Adobe Illustrator 28.2.0, SVG Export Plug-In . SVG Version: 6.00 Build 0)  -->
<svg version="1.1" id="Layer_1" xmlns="http://www.w3.org/2000/svg" xmlns:xlink="http://www.w3.org/1999/xlink" x="0px" y="0px"
	 viewBox="0 0 216 216" style="enable-background:new 0 0 216 216;" xml:space="preserve">
<style type="text/css">
	.st0{fill:none;stroke:#000000;stroke-width:2;stroke-miterlimit:10;}
	.st1{fill:#EDC35D;}
	.st2{font-family:'PlayfairDisplay-Black';}
	.st3{font-size:14.4002px;}
	.st4{font-size:8.4915px;}
</style>
<circle class="st0" cx="103.15" cy="94.77" r="40.85"/>
<circle class="st0" cx="103.15" cy="94.77" r="47.92"/>
<g>
	<path d="M170.18,131.71H39.89c-6.58,0-11.97-5.39-11.97-11.97v0c0-6.58,5.39-11.97,11.97-11.97h130.28
		c6.58,0,11.97,5.39,11.97,11.97v0C182.15,126.32,176.76,131.71,170.18,131.71z"/>
	<text transform="matrix(1 0 0 1 32.3119 124.3941)" class="st1 st2 st3">ThreeRiverRetrievers</text>
</g>
<g>
	<path class="st1" d="M99.66,66.19c1.69,5.06-0.04,10.17-3.85,11.42c-3.81,1.25-8.27-1.84-9.96-6.9s0.04-10.17,3.85-11.42
		C93.52,58.03,97.98,61.12,99.66,66.19z M84.78,78.66c2.23,3.82,1.69,8.27-1.2,9.92c-2.89,1.65-7.05-0.11-9.26-3.93
		c-2.22-3.82-1.7-8.27,1.19-9.92c2.89-1.65,7.05,0.11,9.26,3.93H84.78z M81.1,102.57c6.18-16.68,17.17-20.91,22.05-20.91
		s15.86,4.24,22.05,20.91c0.42,1.14,0.61,2.37,0.61,3.6v0.19c0,3.04-2.47,5.51-5.51,5.51c-1.36,0-2.7-0.17-4.01-0.5l-10.39-2.6
		c-1.81-0.45-3.69-0.45-5.5,0l-10.39,2.6c-1.31,0.33-2.66,0.5-4.01,0.5c-3.04,0-5.51-2.47-5.51-5.51v-0.19
		C80.49,104.94,80.68,103.72,81.1,102.57L81.1,102.57z M122.71,88.59c-2.89-1.65-3.43-6.1-1.2-9.92c2.23-3.82,6.37-5.58,9.26-3.93
		c2.89,1.65,3.43,6.1,1.2,9.92C129.75,88.48,125.6,90.24,122.71,88.59L122.71,88.59z M109.53,77.61c-3.81-1.25-5.53-6.36-3.85-11.42
		s6.15-8.15,9.96-6.9c3.81,1.25,5.53,6.36,3.85,11.42S113.34,78.86,109.53,77.61z"/>
</g>
<text transform="matrix(1 0 0 1 83.1835 151.236)" class="st2 st4">Est. 2022</text>
<rect x="24.59" y="233.44" class="st1" width="18.66" height="18.66"/>
<rect x="55.23" y="233.44" class="st1" width="18.66" height="18.66"/>
<rect x="85.21" y="233.44" class="st1" width="18.66" height="18.66"/>
</svg>
