<svg width="149" height="26" viewBox="0 0 149 26" fill="none" xmlns="http://www.w3.org/2000/svg">
<path d="M26.0191 23.7172L13.8427 0.429232C13.5194 -0.131281 12.7103 -0.14611 12.3676 0.404024L9.8957 5.15059C9.8957 5.15059 9.51724 5.69776 9.79289 6.27903C10.0685 6.86031 15.9451 18.1818 15.9451 18.1818C16.0643 18.4161 15.8945 18.6934 15.6292 18.6934H10.4917C10.225 18.6934 10.0462 18.4205 10.1535 18.1773L11.8431 14.9403C11.8431 14.9403 12.3006 14.0862 11.2352 14.0862H6.02913C5.47187 14.0862 5.0338 14.3012 4.75219 14.8395L0.104861 23.735C-0.205061 24.3044 0.209161 24.9954 0.860294 24.9954H25.2741C25.9341 24.9954 26.3469 24.2852 26.0191 23.7157V23.7172Z" fill="#D9E020"/>
<path d="M36.5581 19.7804C37.5549 19.7804 38.3953 19.7092 39.0792 19.5684C39.7631 19.4275 40.3114 19.1947 40.7257 18.87C41.1384 18.5467 41.4349 18.1315 41.6122 17.6259C41.7895 17.1202 41.8774 16.5019 41.8774 15.7738V4.35889H47.1461V15.7738C47.1461 21.9246 43.6163 25 36.5581 25H30.2256L33.6452 19.7804H36.5581Z" fill="black"/>
<path d="M61.4206 19.7151C62.7378 19.7151 63.8523 19.6498 64.7642 19.5179C65.6761 19.3859 66.4151 19.1279 66.9813 18.7438C67.546 18.3598 67.9573 17.8289 68.2091 17.1512C68.4624 16.4736 68.589 15.5883 68.589 14.4955C68.589 13.4026 68.4624 12.5189 68.2091 11.8397C67.9558 11.1621 67.546 10.6356 66.9813 10.262C66.4151 9.88829 65.6761 9.63473 64.7642 9.50276C63.8523 9.37078 62.7378 9.30554 61.4206 9.30554C60.1034 9.30554 58.9889 9.37078 58.077 9.50276C57.1651 9.63473 56.4261 9.88681 55.8599 10.262C55.2937 10.6356 54.8854 11.1621 54.6321 11.8397C54.3788 12.5174 54.2522 13.4026 54.2522 14.4955C54.2522 15.5883 54.3788 16.4736 54.6321 17.1512C54.8854 17.8289 55.2952 18.3598 55.8599 18.7438C56.4261 19.1279 57.1651 19.3859 58.077 19.5179C58.9889 19.6498 60.1034 19.7151 61.4206 19.7151ZM61.4206 4.02515C65.5405 4.02515 68.6352 4.86592 70.7048 6.54449C72.773 8.22455 73.8085 10.8744 73.8085 14.4955C73.8085 18.1166 72.7774 20.7975 70.7183 22.4776C68.6576 24.1577 65.5584 24.9969 61.4221 24.9969C57.2858 24.9969 54.1643 24.1577 52.1125 22.4776C50.0608 20.799 49.0342 18.1373 49.0342 14.4955C49.0342 10.8536 50.0638 8.22455 52.1245 6.54449C54.1836 4.86592 57.2829 4.02515 61.4206 4.02515Z" fill="black"/>
<path d="M88.0612 19.7151C89.3784 19.7151 90.4929 19.6498 91.4048 19.5179C92.3167 19.3859 93.0557 19.1279 93.6219 18.7438C94.1867 18.3598 94.5979 17.8289 94.8497 17.1512C95.103 16.4736 95.2297 15.5883 95.2297 14.4955C95.2297 13.4026 95.103 12.5189 94.8497 11.8397C94.5964 11.1621 94.1867 10.6356 93.6219 10.262C93.0557 9.88829 92.3167 9.63473 91.4048 9.50276C90.4929 9.37078 89.3784 9.30554 88.0612 9.30554C86.7441 9.30554 85.6295 9.37078 84.7177 9.50276C83.8058 9.63473 83.0667 9.88681 82.5005 10.262C81.9343 10.6356 81.5261 11.1621 81.2728 11.8397C81.0195 12.5174 80.8928 13.4026 80.8928 14.4955C80.8928 15.5883 81.0195 16.4736 81.2728 17.1512C81.5261 17.8289 81.9358 18.3598 82.5005 18.7438C83.0667 19.1279 83.8058 19.3859 84.7177 19.5179C85.6295 19.6498 86.7441 19.7151 88.0612 19.7151ZM88.0612 4.02515C92.1811 4.02515 95.2758 4.86592 97.3455 6.54449C99.4136 8.22455 100.449 10.8744 100.449 14.4955C100.449 18.1166 99.4181 20.7975 97.3589 22.4776C95.2982 24.1577 92.199 24.9969 88.0627 24.9969C83.9265 24.9969 80.8049 24.1577 78.7532 22.4776C76.7014 20.799 75.6748 18.1373 75.6748 14.4955C75.6748 10.8536 76.7044 8.22455 78.7651 6.54449C80.8258 4.86592 83.9235 4.02515 88.0612 4.02515Z" fill="black"/>
<path d="M121.213 19.776L117.819 24.9956H102.849V4.35596H108.092V19.776H121.213Z" fill="black"/>
<path d="M137.058 5.01573C136.526 4.58126 135.863 4.36328 135.068 4.36328C134.274 4.36328 133.558 4.59609 133.017 5.0617C132.476 5.52731 132.029 6.05372 131.674 6.63944L120.808 25H126.955L135.024 11.1058C135.024 11.1058 139.528 19.03 140.024 19.8575H132.749L129.628 25H149L138.412 6.63944C138.041 5.99292 137.588 5.45169 137.056 5.01573H137.058Z" fill="black"/>
<path d="M145.074 6.15304C145.074 6.47037 144.995 6.76546 144.836 7.0383C144.676 7.31114 144.46 7.52763 144.185 7.68482C143.911 7.842 143.613 7.92059 143.295 7.92059C142.978 7.92059 142.683 7.842 142.407 7.68482C142.133 7.52763 141.915 7.31114 141.756 7.0383C141.597 6.76546 141.518 6.46889 141.518 6.15304C141.518 5.8372 141.597 5.5436 141.756 5.26927C141.915 4.99494 142.131 4.77845 142.407 4.62127C142.681 4.46409 142.978 4.3855 143.295 4.3855C143.613 4.3855 143.911 4.46409 144.185 4.62127C144.459 4.77845 144.676 4.99494 144.836 5.26927C144.995 5.5436 145.074 5.83868 145.074 6.15304ZM144.73 6.15304C144.73 5.75861 144.59 5.422 144.31 5.14323C144.03 4.86446 143.691 4.72507 143.295 4.72507C142.899 4.72507 142.561 4.86446 142.28 5.14323C142 5.422 141.86 5.75861 141.86 6.15304C141.86 6.54748 142 6.88408 142.28 7.16286C142.561 7.44163 142.899 7.58102 143.295 7.58102C143.691 7.58102 144.03 7.44163 144.31 7.16286C144.59 6.88408 144.73 6.54748 144.73 6.15304ZM142.489 5.20699H143.34C143.581 5.20699 143.756 5.25592 143.863 5.35231C143.97 5.44869 144.025 5.5777 144.025 5.74081C144.025 5.86685 143.984 5.97658 143.902 6.07C143.82 6.16342 143.69 6.23015 143.513 6.27167C143.586 6.29984 143.639 6.3295 143.674 6.35916C143.721 6.40216 143.772 6.46592 143.826 6.55193C143.829 6.55786 143.931 6.74025 144.133 7.09909H143.574C143.392 6.73876 143.27 6.52375 143.209 6.45406C143.146 6.38437 143.085 6.34878 143.022 6.34878C143.009 6.34878 142.99 6.35174 142.964 6.35619V7.10058H142.492V5.20847L142.489 5.20699ZM142.961 6.00921H143.167C143.304 6.00921 143.399 5.98696 143.456 5.94248C143.513 5.89799 143.54 5.84165 143.54 5.77195C143.54 5.70226 143.513 5.64591 143.459 5.60143C143.405 5.55694 143.315 5.5347 143.185 5.5347H142.961V6.00772V6.00921Z" fill="black"/>
</svg>
